<mxfile host="65bd71144e">
    <diagram id="C5RBs43oDa-KdzZeNtuy" name="Page-1">
        <mxGraphModel dx="3534" dy="6287" grid="1" gridSize="10" guides="1" tooltips="1" connect="1" arrows="1" fold="1" page="1" pageScale="1" pageWidth="827" pageHeight="1169" background="none" math="0" shadow="0">
            <root>
                <mxCell id="WIyWlLk6GJQsqaUBKTNV-0"/>
                <mxCell id="WIyWlLk6GJQsqaUBKTNV-1" parent="WIyWlLk6GJQsqaUBKTNV-0"/>
                <mxCell id="YAqZieZyHoKQM85FhkUF-86" value="" style="edgeStyle=orthogonalEdgeStyle;rounded=0;orthogonalLoop=1;jettySize=auto;html=1;" parent="WIyWlLk6GJQsqaUBKTNV-1" source="YAqZieZyHoKQM85FhkUF-30" target="YAqZieZyHoKQM85FhkUF-85" edge="1">
                    <mxGeometry relative="1" as="geometry"/>
                </mxCell>
                <mxCell id="YAqZieZyHoKQM85FhkUF-30" value="Start" style="strokeWidth=2;html=1;shape=mxgraph.flowchart.terminator;whiteSpace=wrap;" parent="WIyWlLk6GJQsqaUBKTNV-1" vertex="1">
                    <mxGeometry x="-2409.6000000000004" y="-5830" width="119.79" height="42.5" as="geometry"/>
                </mxCell>
                <mxCell id="YAqZieZyHoKQM85FhkUF-71" value="" style="edgeStyle=orthogonalEdgeStyle;rounded=0;orthogonalLoop=1;jettySize=auto;html=1;" parent="WIyWlLk6GJQsqaUBKTNV-1" source="YAqZieZyHoKQM85FhkUF-62" target="YAqZieZyHoKQM85FhkUF-70" edge="1">
                    <mxGeometry relative="1" as="geometry"/>
                </mxCell>
                <mxCell id="YAqZieZyHoKQM85FhkUF-74" value="Yes" style="edgeLabel;html=1;align=center;verticalAlign=middle;resizable=0;points=[];" parent="YAqZieZyHoKQM85FhkUF-71" vertex="1" connectable="0">
                    <mxGeometry x="-0.1831" y="-1" relative="1" as="geometry">
                        <mxPoint y="-1" as="offset"/>
                    </mxGeometry>
                </mxCell>
                <mxCell id="YAqZieZyHoKQM85FhkUF-78" value="" style="edgeStyle=orthogonalEdgeStyle;rounded=0;orthogonalLoop=1;jettySize=auto;html=1;" parent="WIyWlLk6GJQsqaUBKTNV-1" source="YAqZieZyHoKQM85FhkUF-62" target="YAqZieZyHoKQM85FhkUF-77" edge="1">
                    <mxGeometry relative="1" as="geometry"/>
                </mxCell>
                <mxCell id="k07imgYd8GeX-_EpzWMu-6" value="No" style="edgeLabel;html=1;align=center;verticalAlign=middle;resizable=0;points=[];fontSize=12;" parent="YAqZieZyHoKQM85FhkUF-78" connectable="0" vertex="1">
                    <mxGeometry x="-0.3554" y="-2" relative="1" as="geometry">
                        <mxPoint x="2" as="offset"/>
                    </mxGeometry>
                </mxCell>
                <mxCell id="YAqZieZyHoKQM85FhkUF-62" value="admin?" style="strokeWidth=2;html=1;shape=mxgraph.flowchart.decision;whiteSpace=wrap;" parent="WIyWlLk6GJQsqaUBKTNV-1" vertex="1">
                    <mxGeometry x="-2260.1199999999994" y="-5415" width="119.36" height="60" as="geometry"/>
                </mxCell>
                <mxCell id="k07imgYd8GeX-_EpzWMu-24" style="edgeStyle=orthogonalEdgeStyle;rounded=0;orthogonalLoop=1;jettySize=auto;html=1;exitX=0.5;exitY=1;exitDx=0;exitDy=0;entryX=0.5;entryY=0;entryDx=0;entryDy=0;fontSize=12;startSize=8;endSize=8;" parent="WIyWlLk6GJQsqaUBKTNV-1" source="YAqZieZyHoKQM85FhkUF-70" target="k07imgYd8GeX-_EpzWMu-22" edge="1">
                    <mxGeometry relative="1" as="geometry">
                        <Array as="points">
                            <mxPoint x="-2030" y="-5228.75"/>
                            <mxPoint x="-2200" y="-5228.75"/>
                        </Array>
                    </mxGeometry>
                </mxCell>
                <mxCell id="YAqZieZyHoKQM85FhkUF-70" value="menu_admin()" style="shape=process;whiteSpace=wrap;html=1;backgroundOutline=1;strokeWidth=2;" parent="WIyWlLk6GJQsqaUBKTNV-1" vertex="1">
                    <mxGeometry x="-2090.12" y="-5415" width="120" height="60" as="geometry"/>
                </mxCell>
                <mxCell id="k07imgYd8GeX-_EpzWMu-23" value="" style="edgeStyle=none;curved=1;rounded=0;orthogonalLoop=1;jettySize=auto;html=1;fontSize=12;startSize=8;endSize=8;" parent="WIyWlLk6GJQsqaUBKTNV-1" source="YAqZieZyHoKQM85FhkUF-77" target="k07imgYd8GeX-_EpzWMu-22" edge="1">
                    <mxGeometry relative="1" as="geometry"/>
                </mxCell>
                <mxCell id="YAqZieZyHoKQM85FhkUF-77" value="menu_user()" style="shape=process;whiteSpace=wrap;html=1;backgroundOutline=1;strokeWidth=2;" parent="WIyWlLk6GJQsqaUBKTNV-1" vertex="1">
                    <mxGeometry x="-2260.12" y="-5315" width="120" height="60" as="geometry"/>
                </mxCell>
                <mxCell id="YAqZieZyHoKQM85FhkUF-92" value="" style="edgeStyle=orthogonalEdgeStyle;rounded=0;orthogonalLoop=1;jettySize=auto;html=1;" parent="WIyWlLk6GJQsqaUBKTNV-1" source="YAqZieZyHoKQM85FhkUF-85" target="YAqZieZyHoKQM85FhkUF-91" edge="1">
                    <mxGeometry relative="1" as="geometry"/>
                </mxCell>
                <mxCell id="YAqZieZyHoKQM85FhkUF-85" value="Menu Awal" style="rounded=1;whiteSpace=wrap;html=1;strokeWidth=2;" parent="WIyWlLk6GJQsqaUBKTNV-1" vertex="1">
                    <mxGeometry x="-2399.86" y="-5760" width="100.31" height="40" as="geometry"/>
                </mxCell>
                <mxCell id="YAqZieZyHoKQM85FhkUF-97" value="" style="edgeStyle=orthogonalEdgeStyle;rounded=0;orthogonalLoop=1;jettySize=auto;html=1;" parent="WIyWlLk6GJQsqaUBKTNV-1" source="YAqZieZyHoKQM85FhkUF-91" target="YAqZieZyHoKQM85FhkUF-96" edge="1">
                    <mxGeometry relative="1" as="geometry"/>
                </mxCell>
                <mxCell id="YAqZieZyHoKQM85FhkUF-91" value="input pilihan" style="shape=parallelogram;perimeter=parallelogramPerimeter;whiteSpace=wrap;html=1;fixedSize=1;rounded=1;strokeWidth=2;" parent="WIyWlLk6GJQsqaUBKTNV-1" vertex="1">
                    <mxGeometry x="-2409.6" y="-5690" width="120" height="40" as="geometry"/>
                </mxCell>
                <mxCell id="YAqZieZyHoKQM85FhkUF-99" value="" style="edgeStyle=orthogonalEdgeStyle;rounded=0;orthogonalLoop=1;jettySize=auto;html=1;" parent="WIyWlLk6GJQsqaUBKTNV-1" source="YAqZieZyHoKQM85FhkUF-96" target="YAqZieZyHoKQM85FhkUF-98" edge="1">
                    <mxGeometry relative="1" as="geometry"/>
                </mxCell>
                <mxCell id="k07imgYd8GeX-_EpzWMu-5" value="No" style="edgeLabel;html=1;align=center;verticalAlign=middle;resizable=0;points=[];fontSize=12;" parent="YAqZieZyHoKQM85FhkUF-99" connectable="0" vertex="1">
                    <mxGeometry x="-0.1323" relative="1" as="geometry">
                        <mxPoint as="offset"/>
                    </mxGeometry>
                </mxCell>
                <mxCell id="k07imgYd8GeX-_EpzWMu-14" value="" style="edgeStyle=none;curved=1;rounded=0;orthogonalLoop=1;jettySize=auto;html=1;fontSize=12;startSize=8;endSize=8;" parent="WIyWlLk6GJQsqaUBKTNV-1" source="YAqZieZyHoKQM85FhkUF-96" target="k07imgYd8GeX-_EpzWMu-13" edge="1">
                    <mxGeometry relative="1" as="geometry"/>
                </mxCell>
                <mxCell id="k07imgYd8GeX-_EpzWMu-31" value="Yes" style="edgeLabel;html=1;align=center;verticalAlign=middle;resizable=0;points=[];fontSize=12;" parent="k07imgYd8GeX-_EpzWMu-14" connectable="0" vertex="1">
                    <mxGeometry x="-0.106" relative="1" as="geometry">
                        <mxPoint y="-3" as="offset"/>
                    </mxGeometry>
                </mxCell>
                <mxCell id="YAqZieZyHoKQM85FhkUF-96" value="Registrasi?" style="strokeWidth=2;html=1;shape=mxgraph.flowchart.decision;whiteSpace=wrap;" parent="WIyWlLk6GJQsqaUBKTNV-1" vertex="1">
                    <mxGeometry x="-2399.41" y="-5620" width="99.86" height="60" as="geometry"/>
                </mxCell>
                <mxCell id="k07imgYd8GeX-_EpzWMu-33" value="" style="edgeStyle=none;curved=1;rounded=0;orthogonalLoop=1;jettySize=auto;html=1;fontSize=12;startSize=8;endSize=8;" parent="WIyWlLk6GJQsqaUBKTNV-1" source="YAqZieZyHoKQM85FhkUF-98" target="k07imgYd8GeX-_EpzWMu-32" edge="1">
                    <mxGeometry relative="1" as="geometry"/>
                </mxCell>
                <mxCell id="k07imgYd8GeX-_EpzWMu-34" value="No" style="edgeLabel;html=1;align=center;verticalAlign=middle;resizable=0;points=[];fontSize=12;" parent="k07imgYd8GeX-_EpzWMu-33" connectable="0" vertex="1">
                    <mxGeometry x="-0.084" y="1" relative="1" as="geometry">
                        <mxPoint as="offset"/>
                    </mxGeometry>
                </mxCell>
                <mxCell id="YAqZieZyHoKQM85FhkUF-98" value="Login?" style="strokeWidth=2;html=1;shape=mxgraph.flowchart.decision;whiteSpace=wrap;" parent="WIyWlLk6GJQsqaUBKTNV-1" vertex="1">
                    <mxGeometry x="-2250.3199999999997" y="-5620" width="100" height="60" as="geometry"/>
                </mxCell>
                <mxCell id="k07imgYd8GeX-_EpzWMu-7" style="edgeStyle=orthogonalEdgeStyle;rounded=0;orthogonalLoop=1;jettySize=auto;html=1;exitX=0.5;exitY=1;exitDx=0;exitDy=0;exitPerimeter=0;fontSize=12;startSize=8;endSize=8;entryX=0.5;entryY=0;entryDx=0;entryDy=0;" parent="WIyWlLk6GJQsqaUBKTNV-1" source="YAqZieZyHoKQM85FhkUF-98" target="k07imgYd8GeX-_EpzWMu-412" edge="1">
                    <mxGeometry relative="1" as="geometry">
                        <mxPoint x="-2150" y="-5545" as="targetPoint"/>
                        <Array as="points"/>
                    </mxGeometry>
                </mxCell>
                <mxCell id="k07imgYd8GeX-_EpzWMu-29" value="Yes" style="edgeLabel;html=1;align=center;verticalAlign=middle;resizable=0;points=[];fontSize=12;" parent="k07imgYd8GeX-_EpzWMu-7" connectable="0" vertex="1">
                    <mxGeometry x="-0.2324" relative="1" as="geometry">
                        <mxPoint as="offset"/>
                    </mxGeometry>
                </mxCell>
                <mxCell id="k07imgYd8GeX-_EpzWMu-12" value="" style="edgeStyle=none;curved=1;rounded=0;orthogonalLoop=1;jettySize=auto;html=1;fontSize=12;startSize=8;endSize=8;" parent="WIyWlLk6GJQsqaUBKTNV-1" edge="1">
                    <mxGeometry relative="1" as="geometry">
                        <mxPoint x="-2199.48" y="-5600" as="targetPoint"/>
                    </mxGeometry>
                </mxCell>
                <mxCell id="k07imgYd8GeX-_EpzWMu-15" style="edgeStyle=orthogonalEdgeStyle;rounded=0;orthogonalLoop=1;jettySize=auto;html=1;entryX=0;entryY=0.5;entryDx=0;entryDy=0;fontSize=12;startSize=8;endSize=8;exitX=0;exitY=0.5;exitDx=0;exitDy=0;" parent="WIyWlLk6GJQsqaUBKTNV-1" source="k07imgYd8GeX-_EpzWMu-13" target="YAqZieZyHoKQM85FhkUF-85" edge="1">
                    <mxGeometry relative="1" as="geometry">
                        <mxPoint x="-2430" y="-5480" as="sourcePoint"/>
                        <Array as="points">
                            <mxPoint x="-2440" y="-5486"/>
                            <mxPoint x="-2440" y="-5740"/>
                        </Array>
                    </mxGeometry>
                </mxCell>
                <mxCell id="k07imgYd8GeX-_EpzWMu-13" value="registrasi()" style="shape=process;whiteSpace=wrap;html=1;backgroundOutline=1;strokeWidth=2;" parent="WIyWlLk6GJQsqaUBKTNV-1" vertex="1">
                    <mxGeometry x="-2409.6" y="-5516.25" width="120" height="60" as="geometry"/>
                </mxCell>
                <mxCell id="k07imgYd8GeX-_EpzWMu-18" value="End" style="strokeWidth=2;html=1;shape=mxgraph.flowchart.terminator;whiteSpace=wrap;" parent="WIyWlLk6GJQsqaUBKTNV-1" vertex="1">
                    <mxGeometry x="-2255.6499999999996" y="-5071.25" width="110.43" height="42.5" as="geometry"/>
                </mxCell>
                <mxCell id="k07imgYd8GeX-_EpzWMu-25" value="" style="edgeStyle=none;curved=1;rounded=0;orthogonalLoop=1;jettySize=auto;html=1;fontSize=12;startSize=8;endSize=8;" parent="WIyWlLk6GJQsqaUBKTNV-1" source="k07imgYd8GeX-_EpzWMu-22" target="k07imgYd8GeX-_EpzWMu-18" edge="1">
                    <mxGeometry relative="1" as="geometry"/>
                </mxCell>
                <mxCell id="k07imgYd8GeX-_EpzWMu-26" value="Yes" style="edgeLabel;html=1;align=center;verticalAlign=middle;resizable=0;points=[];fontSize=12;" parent="k07imgYd8GeX-_EpzWMu-25" connectable="0" vertex="1">
                    <mxGeometry x="-0.0306" y="-1" relative="1" as="geometry">
                        <mxPoint as="offset"/>
                    </mxGeometry>
                </mxCell>
                <mxCell id="k07imgYd8GeX-_EpzWMu-27" style="edgeStyle=orthogonalEdgeStyle;rounded=0;orthogonalLoop=1;jettySize=auto;html=1;exitX=0;exitY=0.5;exitDx=0;exitDy=0;entryX=0;entryY=0.5;entryDx=0;entryDy=0;fontSize=12;startSize=8;endSize=8;" parent="WIyWlLk6GJQsqaUBKTNV-1" source="k07imgYd8GeX-_EpzWMu-22" target="YAqZieZyHoKQM85FhkUF-85" edge="1">
                    <mxGeometry relative="1" as="geometry">
                        <Array as="points">
                            <mxPoint x="-2440" y="-5158"/>
                            <mxPoint x="-2440" y="-5740"/>
                        </Array>
                    </mxGeometry>
                </mxCell>
                <mxCell id="k07imgYd8GeX-_EpzWMu-28" value="No" style="edgeLabel;html=1;align=center;verticalAlign=middle;resizable=0;points=[];fontSize=12;" parent="k07imgYd8GeX-_EpzWMu-27" connectable="0" vertex="1">
                    <mxGeometry x="-0.9443" y="1" relative="1" as="geometry">
                        <mxPoint x="-24" y="-2" as="offset"/>
                    </mxGeometry>
                </mxCell>
                <mxCell id="k07imgYd8GeX-_EpzWMu-22" value="keluar?" style="rhombus;whiteSpace=wrap;html=1;strokeWidth=2;" parent="WIyWlLk6GJQsqaUBKTNV-1" vertex="1">
                    <mxGeometry x="-2255.12" y="-5193" width="110" height="70" as="geometry"/>
                </mxCell>
                <mxCell id="k07imgYd8GeX-_EpzWMu-35" style="edgeStyle=orthogonalEdgeStyle;rounded=0;orthogonalLoop=1;jettySize=auto;html=1;exitX=1;exitY=0.5;exitDx=0;exitDy=0;exitPerimeter=0;fontSize=12;startSize=8;endSize=8;entryX=1;entryY=0.5;entryDx=0;entryDy=0;entryPerimeter=0;" parent="WIyWlLk6GJQsqaUBKTNV-1" source="k07imgYd8GeX-_EpzWMu-32" target="k07imgYd8GeX-_EpzWMu-18" edge="1">
                    <mxGeometry relative="1" as="geometry">
                        <mxPoint x="-2140" y="-5270" as="targetPoint"/>
                        <Array as="points">
                            <mxPoint x="-1930" y="-5590"/>
                            <mxPoint x="-1930" y="-5050"/>
                        </Array>
                    </mxGeometry>
                </mxCell>
                <mxCell id="k07imgYd8GeX-_EpzWMu-38" value="Yes" style="edgeLabel;html=1;align=center;verticalAlign=middle;resizable=0;points=[];fontSize=12;" parent="k07imgYd8GeX-_EpzWMu-35" connectable="0" vertex="1">
                    <mxGeometry x="-0.9357" y="1" relative="1" as="geometry">
                        <mxPoint x="1" y="1" as="offset"/>
                    </mxGeometry>
                </mxCell>
                <mxCell id="k07imgYd8GeX-_EpzWMu-36" style="edgeStyle=orthogonalEdgeStyle;rounded=0;orthogonalLoop=1;jettySize=auto;html=1;exitX=0.5;exitY=0;exitDx=0;exitDy=0;exitPerimeter=0;entryX=1;entryY=0.5;entryDx=0;entryDy=0;fontSize=12;startSize=8;endSize=8;" parent="WIyWlLk6GJQsqaUBKTNV-1" source="k07imgYd8GeX-_EpzWMu-32" target="YAqZieZyHoKQM85FhkUF-85" edge="1">
                    <mxGeometry relative="1" as="geometry"/>
                </mxCell>
                <mxCell id="k07imgYd8GeX-_EpzWMu-37" value="No" style="edgeLabel;html=1;align=center;verticalAlign=middle;resizable=0;points=[];fontSize=12;" parent="k07imgYd8GeX-_EpzWMu-36" connectable="0" vertex="1">
                    <mxGeometry x="-0.8895" y="1" relative="1" as="geometry">
                        <mxPoint as="offset"/>
                    </mxGeometry>
                </mxCell>
                <mxCell id="k07imgYd8GeX-_EpzWMu-32" value="Keluar?" style="strokeWidth=2;html=1;shape=mxgraph.flowchart.decision;whiteSpace=wrap;" parent="WIyWlLk6GJQsqaUBKTNV-1" vertex="1">
                    <mxGeometry x="-2080.12" y="-5620" width="100" height="60" as="geometry"/>
                </mxCell>
                <mxCell id="k07imgYd8GeX-_EpzWMu-209" value="" style="edgeStyle=orthogonalEdgeStyle;rounded=0;orthogonalLoop=1;jettySize=auto;html=1;fontSize=12;startSize=8;endSize=8;" parent="WIyWlLk6GJQsqaUBKTNV-1" source="k07imgYd8GeX-_EpzWMu-122" target="k07imgYd8GeX-_EpzWMu-208" edge="1">
                    <mxGeometry relative="1" as="geometry"/>
                </mxCell>
                <mxCell id="k07imgYd8GeX-_EpzWMu-122" value="input pilihan" style="shape=parallelogram;perimeter=parallelogramPerimeter;whiteSpace=wrap;html=1;fixedSize=1;align=center;strokeWidth=2;rounded=1;" parent="WIyWlLk6GJQsqaUBKTNV-1" vertex="1">
                    <mxGeometry x="-1983.8799999999999" y="-4819.5" width="140" height="49.5" as="geometry"/>
                </mxCell>
                <mxCell id="k07imgYd8GeX-_EpzWMu-123" value="" style="endArrow=classic;html=1;rounded=0;" parent="WIyWlLk6GJQsqaUBKTNV-1" edge="1">
                    <mxGeometry width="50" height="50" relative="1" as="geometry">
                        <mxPoint x="-2009.97" y="-4819.5" as="sourcePoint"/>
                        <mxPoint x="-1959.97" y="-4819.5" as="targetPoint"/>
                    </mxGeometry>
                </mxCell>
                <mxCell id="k07imgYd8GeX-_EpzWMu-235" style="edgeStyle=orthogonalEdgeStyle;rounded=0;orthogonalLoop=1;jettySize=auto;html=1;exitX=0.5;exitY=1;exitDx=0;exitDy=0;entryX=0;entryY=0.5;entryDx=0;entryDy=0;fontSize=12;startSize=8;endSize=8;" parent="WIyWlLk6GJQsqaUBKTNV-1" target="k07imgYd8GeX-_EpzWMu-203" edge="1">
                    <mxGeometry relative="1" as="geometry">
                        <mxPoint x="-1737.41" y="-4540" as="sourcePoint"/>
                        <Array as="points">
                            <mxPoint x="-1736.9399999999998" y="-4510"/>
                            <mxPoint x="-2029.94" y="-4510"/>
                            <mxPoint x="-2029.94" y="-4885"/>
                        </Array>
                    </mxGeometry>
                </mxCell>
                <mxCell id="k07imgYd8GeX-_EpzWMu-204" value="" style="edgeStyle=orthogonalEdgeStyle;rounded=0;orthogonalLoop=1;jettySize=auto;html=1;fontSize=12;startSize=8;endSize=8;" parent="WIyWlLk6GJQsqaUBKTNV-1" source="k07imgYd8GeX-_EpzWMu-202" target="k07imgYd8GeX-_EpzWMu-203" edge="1">
                    <mxGeometry relative="1" as="geometry"/>
                </mxCell>
                <mxCell id="k07imgYd8GeX-_EpzWMu-202" value="menu_admin()" style="strokeWidth=2;html=1;shape=mxgraph.flowchart.terminator;whiteSpace=wrap;" parent="WIyWlLk6GJQsqaUBKTNV-1" vertex="1">
                    <mxGeometry x="-1981.24" y="-5000" width="134.72" height="50" as="geometry"/>
                </mxCell>
                <mxCell id="k07imgYd8GeX-_EpzWMu-230" value="" style="edgeStyle=orthogonalEdgeStyle;rounded=0;orthogonalLoop=1;jettySize=auto;html=1;fontSize=12;startSize=8;endSize=8;entryX=0.5;entryY=0;entryDx=0;entryDy=0;" parent="WIyWlLk6GJQsqaUBKTNV-1" source="k07imgYd8GeX-_EpzWMu-203" target="k07imgYd8GeX-_EpzWMu-122" edge="1">
                    <mxGeometry relative="1" as="geometry"/>
                </mxCell>
                <mxCell id="k07imgYd8GeX-_EpzWMu-203" value="Menu Admin" style="rounded=1;whiteSpace=wrap;html=1;strokeWidth=2;" parent="WIyWlLk6GJQsqaUBKTNV-1" vertex="1">
                    <mxGeometry x="-1973.8799999999999" y="-4910" width="120" height="50" as="geometry"/>
                </mxCell>
                <mxCell id="k07imgYd8GeX-_EpzWMu-211" value="" style="edgeStyle=none;curved=1;rounded=0;orthogonalLoop=1;jettySize=auto;html=1;fontSize=12;startSize=8;endSize=8;" parent="WIyWlLk6GJQsqaUBKTNV-1" source="k07imgYd8GeX-_EpzWMu-208" target="k07imgYd8GeX-_EpzWMu-210" edge="1">
                    <mxGeometry relative="1" as="geometry"/>
                </mxCell>
                <mxCell id="k07imgYd8GeX-_EpzWMu-223" value="No" style="edgeLabel;html=1;align=center;verticalAlign=middle;resizable=0;points=[];fontSize=12;" parent="k07imgYd8GeX-_EpzWMu-211" connectable="0" vertex="1">
                    <mxGeometry x="-0.2157" y="1" relative="1" as="geometry">
                        <mxPoint as="offset"/>
                    </mxGeometry>
                </mxCell>
                <mxCell id="k07imgYd8GeX-_EpzWMu-216" value="" style="edgeStyle=none;curved=1;rounded=0;orthogonalLoop=1;jettySize=auto;html=1;fontSize=12;startSize=8;endSize=8;entryX=0.5;entryY=0;entryDx=0;entryDy=0;" parent="WIyWlLk6GJQsqaUBKTNV-1" source="k07imgYd8GeX-_EpzWMu-208" target="k07imgYd8GeX-_EpzWMu-233" edge="1">
                    <mxGeometry relative="1" as="geometry">
                        <mxPoint x="-1913.8799999999999" y="-4600" as="targetPoint"/>
                    </mxGeometry>
                </mxCell>
                <mxCell id="k07imgYd8GeX-_EpzWMu-226" value="Yes" style="edgeLabel;html=1;align=center;verticalAlign=middle;resizable=0;points=[];fontSize=12;" parent="k07imgYd8GeX-_EpzWMu-216" connectable="0" vertex="1">
                    <mxGeometry x="-0.0588" relative="1" as="geometry">
                        <mxPoint y="-3" as="offset"/>
                    </mxGeometry>
                </mxCell>
                <mxCell id="k07imgYd8GeX-_EpzWMu-208" value="Tampilkan Data&lt;div&gt;Tanaman?&lt;/div&gt;" style="rhombus;whiteSpace=wrap;html=1;strokeWidth=2;rounded=0;" parent="WIyWlLk6GJQsqaUBKTNV-1" vertex="1">
                    <mxGeometry x="-1980.3499999999997" y="-4731" width="132.94" height="80" as="geometry"/>
                </mxCell>
                <mxCell id="k07imgYd8GeX-_EpzWMu-213" value="" style="edgeStyle=none;curved=1;rounded=0;orthogonalLoop=1;jettySize=auto;html=1;fontSize=12;startSize=8;endSize=8;" parent="WIyWlLk6GJQsqaUBKTNV-1" source="k07imgYd8GeX-_EpzWMu-210" target="k07imgYd8GeX-_EpzWMu-212" edge="1">
                    <mxGeometry relative="1" as="geometry"/>
                </mxCell>
                <mxCell id="k07imgYd8GeX-_EpzWMu-224" value="No" style="edgeLabel;html=1;align=center;verticalAlign=middle;resizable=0;points=[];fontSize=12;" parent="k07imgYd8GeX-_EpzWMu-213" connectable="0" vertex="1">
                    <mxGeometry x="-0.1333" relative="1" as="geometry">
                        <mxPoint as="offset"/>
                    </mxGeometry>
                </mxCell>
                <mxCell id="k07imgYd8GeX-_EpzWMu-217" value="" style="edgeStyle=none;curved=1;rounded=0;orthogonalLoop=1;jettySize=auto;html=1;fontSize=12;startSize=8;endSize=8;" parent="WIyWlLk6GJQsqaUBKTNV-1" source="k07imgYd8GeX-_EpzWMu-210" edge="1">
                    <mxGeometry relative="1" as="geometry">
                        <mxPoint x="-1737.41" y="-4600" as="targetPoint"/>
                    </mxGeometry>
                </mxCell>
                <mxCell id="k07imgYd8GeX-_EpzWMu-227" value="Yes" style="edgeLabel;html=1;align=center;verticalAlign=middle;resizable=0;points=[];fontSize=12;" parent="k07imgYd8GeX-_EpzWMu-217" connectable="0" vertex="1">
                    <mxGeometry x="-0.1852" relative="1" as="geometry">
                        <mxPoint as="offset"/>
                    </mxGeometry>
                </mxCell>
                <mxCell id="k07imgYd8GeX-_EpzWMu-210" value="Tambahkan Data&lt;div&gt;Tanaman?&lt;/div&gt;" style="rhombus;whiteSpace=wrap;html=1;strokeWidth=2;rounded=0;" parent="WIyWlLk6GJQsqaUBKTNV-1" vertex="1">
                    <mxGeometry x="-1803.8799999999994" y="-4731" width="132.94" height="80" as="geometry"/>
                </mxCell>
                <mxCell id="k07imgYd8GeX-_EpzWMu-215" value="" style="edgeStyle=none;curved=1;rounded=0;orthogonalLoop=1;jettySize=auto;html=1;fontSize=12;startSize=8;endSize=8;" parent="WIyWlLk6GJQsqaUBKTNV-1" source="k07imgYd8GeX-_EpzWMu-212" target="k07imgYd8GeX-_EpzWMu-214" edge="1">
                    <mxGeometry relative="1" as="geometry"/>
                </mxCell>
                <mxCell id="k07imgYd8GeX-_EpzWMu-225" value="No" style="edgeLabel;html=1;align=center;verticalAlign=middle;resizable=0;points=[];fontSize=12;" parent="k07imgYd8GeX-_EpzWMu-215" connectable="0" vertex="1">
                    <mxGeometry x="-0.128" relative="1" as="geometry">
                        <mxPoint as="offset"/>
                    </mxGeometry>
                </mxCell>
                <mxCell id="k07imgYd8GeX-_EpzWMu-221" value="" style="edgeStyle=none;curved=1;rounded=0;orthogonalLoop=1;jettySize=auto;html=1;fontSize=12;startSize=8;endSize=8;" parent="WIyWlLk6GJQsqaUBKTNV-1" source="k07imgYd8GeX-_EpzWMu-212" edge="1">
                    <mxGeometry relative="1" as="geometry">
                        <mxPoint x="-1553.47" y="-4600" as="targetPoint"/>
                    </mxGeometry>
                </mxCell>
                <mxCell id="k07imgYd8GeX-_EpzWMu-228" value="Yes" style="edgeLabel;html=1;align=center;verticalAlign=middle;resizable=0;points=[];fontSize=12;" parent="k07imgYd8GeX-_EpzWMu-221" connectable="0" vertex="1">
                    <mxGeometry x="-0.098" relative="1" as="geometry">
                        <mxPoint as="offset"/>
                    </mxGeometry>
                </mxCell>
                <mxCell id="k07imgYd8GeX-_EpzWMu-212" value="Edit Data&lt;div&gt;Tanaman?&lt;/div&gt;" style="rhombus;whiteSpace=wrap;html=1;strokeWidth=2;rounded=0;" parent="WIyWlLk6GJQsqaUBKTNV-1" vertex="1">
                    <mxGeometry x="-1619.9399999999996" y="-4731" width="132.94" height="80" as="geometry"/>
                </mxCell>
                <mxCell id="k07imgYd8GeX-_EpzWMu-222" value="" style="edgeStyle=none;curved=1;rounded=0;orthogonalLoop=1;jettySize=auto;html=1;fontSize=12;startSize=8;endSize=8;" parent="WIyWlLk6GJQsqaUBKTNV-1" source="k07imgYd8GeX-_EpzWMu-214" edge="1">
                    <mxGeometry relative="1" as="geometry">
                        <mxPoint x="-1367.41" y="-4600" as="targetPoint"/>
                    </mxGeometry>
                </mxCell>
                <mxCell id="k07imgYd8GeX-_EpzWMu-229" value="Yes" style="edgeLabel;html=1;align=center;verticalAlign=middle;resizable=0;points=[];fontSize=12;" parent="k07imgYd8GeX-_EpzWMu-222" connectable="0" vertex="1">
                    <mxGeometry x="-0.1155" y="-1" relative="1" as="geometry">
                        <mxPoint as="offset"/>
                    </mxGeometry>
                </mxCell>
                <mxCell id="k07imgYd8GeX-_EpzWMu-242" value="" style="edgeStyle=none;curved=1;rounded=0;orthogonalLoop=1;jettySize=auto;html=1;fontSize=12;startSize=8;endSize=8;" parent="WIyWlLk6GJQsqaUBKTNV-1" source="k07imgYd8GeX-_EpzWMu-214" target="k07imgYd8GeX-_EpzWMu-241" edge="1">
                    <mxGeometry relative="1" as="geometry"/>
                </mxCell>
                <mxCell id="k07imgYd8GeX-_EpzWMu-243" value="No" style="edgeLabel;html=1;align=center;verticalAlign=middle;resizable=0;points=[];fontSize=12;" parent="k07imgYd8GeX-_EpzWMu-242" connectable="0" vertex="1">
                    <mxGeometry x="-0.1932" relative="1" as="geometry">
                        <mxPoint as="offset"/>
                    </mxGeometry>
                </mxCell>
                <mxCell id="k07imgYd8GeX-_EpzWMu-214" value="Hapus Data&lt;div&gt;Tanaman?&lt;/div&gt;" style="rhombus;whiteSpace=wrap;html=1;strokeWidth=2;rounded=0;" parent="WIyWlLk6GJQsqaUBKTNV-1" vertex="1">
                    <mxGeometry x="-1433.8799999999997" y="-4731" width="132.94" height="80" as="geometry"/>
                </mxCell>
                <mxCell id="k07imgYd8GeX-_EpzWMu-251" style="edgeStyle=orthogonalEdgeStyle;rounded=0;orthogonalLoop=1;jettySize=auto;html=1;exitX=0.5;exitY=1;exitDx=0;exitDy=0;entryX=0;entryY=0.5;entryDx=0;entryDy=0;fontSize=12;startSize=8;endSize=8;" parent="WIyWlLk6GJQsqaUBKTNV-1" source="k07imgYd8GeX-_EpzWMu-233" target="k07imgYd8GeX-_EpzWMu-203" edge="1">
                    <mxGeometry relative="1" as="geometry">
                        <Array as="points">
                            <mxPoint x="-1913.9399999999998" y="-4510"/>
                            <mxPoint x="-2029.94" y="-4510"/>
                            <mxPoint x="-2029.94" y="-4885"/>
                        </Array>
                    </mxGeometry>
                </mxCell>
                <mxCell id="k07imgYd8GeX-_EpzWMu-233" value="tampilkan_data()" style="shape=process;whiteSpace=wrap;html=1;backgroundOutline=1;strokeWidth=2;" parent="WIyWlLk6GJQsqaUBKTNV-1" vertex="1">
                    <mxGeometry x="-1973.8799999999999" y="-4600" width="120" height="60" as="geometry"/>
                </mxCell>
                <mxCell id="k07imgYd8GeX-_EpzWMu-236" value="tambah_data()" style="shape=process;whiteSpace=wrap;html=1;backgroundOutline=1;strokeWidth=2;" parent="WIyWlLk6GJQsqaUBKTNV-1" vertex="1">
                    <mxGeometry x="-1797.41" y="-4600" width="120" height="60" as="geometry"/>
                </mxCell>
                <mxCell id="k07imgYd8GeX-_EpzWMu-239" style="edgeStyle=orthogonalEdgeStyle;rounded=0;orthogonalLoop=1;jettySize=auto;html=1;exitX=0.5;exitY=1;exitDx=0;exitDy=0;entryX=0;entryY=0.5;entryDx=0;entryDy=0;fontSize=12;startSize=8;endSize=8;" parent="WIyWlLk6GJQsqaUBKTNV-1" source="k07imgYd8GeX-_EpzWMu-237" target="k07imgYd8GeX-_EpzWMu-203" edge="1">
                    <mxGeometry relative="1" as="geometry">
                        <Array as="points">
                            <mxPoint x="-1552.94" y="-4510"/>
                            <mxPoint x="-2029.94" y="-4510"/>
                            <mxPoint x="-2029.94" y="-4885"/>
                        </Array>
                    </mxGeometry>
                </mxCell>
                <mxCell id="k07imgYd8GeX-_EpzWMu-237" value="update_data()" style="shape=process;whiteSpace=wrap;html=1;backgroundOutline=1;strokeWidth=2;" parent="WIyWlLk6GJQsqaUBKTNV-1" vertex="1">
                    <mxGeometry x="-1613.4700000000005" y="-4600" width="120" height="60" as="geometry"/>
                </mxCell>
                <mxCell id="k07imgYd8GeX-_EpzWMu-240" style="edgeStyle=orthogonalEdgeStyle;rounded=0;orthogonalLoop=1;jettySize=auto;html=1;exitX=0.5;exitY=1;exitDx=0;exitDy=0;entryX=0;entryY=0.5;entryDx=0;entryDy=0;fontSize=12;startSize=8;endSize=8;" parent="WIyWlLk6GJQsqaUBKTNV-1" source="k07imgYd8GeX-_EpzWMu-238" target="k07imgYd8GeX-_EpzWMu-203" edge="1">
                    <mxGeometry relative="1" as="geometry">
                        <Array as="points">
                            <mxPoint x="-1366.94" y="-4510"/>
                            <mxPoint x="-2029.94" y="-4510"/>
                            <mxPoint x="-2029.94" y="-4885"/>
                        </Array>
                    </mxGeometry>
                </mxCell>
                <mxCell id="k07imgYd8GeX-_EpzWMu-238" value="hapus_data()" style="shape=process;whiteSpace=wrap;html=1;backgroundOutline=1;strokeWidth=2;" parent="WIyWlLk6GJQsqaUBKTNV-1" vertex="1">
                    <mxGeometry x="-1427.4100000000005" y="-4600" width="120" height="60" as="geometry"/>
                </mxCell>
                <mxCell id="k07imgYd8GeX-_EpzWMu-245" value="" style="edgeStyle=none;curved=1;rounded=0;orthogonalLoop=1;jettySize=auto;html=1;fontSize=12;startSize=8;endSize=8;" parent="WIyWlLk6GJQsqaUBKTNV-1" source="k07imgYd8GeX-_EpzWMu-241" target="k07imgYd8GeX-_EpzWMu-244" edge="1">
                    <mxGeometry relative="1" as="geometry"/>
                </mxCell>
                <mxCell id="k07imgYd8GeX-_EpzWMu-250" value="Yes" style="edgeLabel;html=1;align=center;verticalAlign=middle;resizable=0;points=[];fontSize=12;" parent="k07imgYd8GeX-_EpzWMu-245" connectable="0" vertex="1">
                    <mxGeometry x="-0.2075" relative="1" as="geometry">
                        <mxPoint as="offset"/>
                    </mxGeometry>
                </mxCell>
                <mxCell id="k07imgYd8GeX-_EpzWMu-248" style="edgeStyle=orthogonalEdgeStyle;rounded=0;orthogonalLoop=1;jettySize=auto;html=1;exitX=0.5;exitY=0;exitDx=0;exitDy=0;entryX=1;entryY=0.5;entryDx=0;entryDy=0;fontSize=12;startSize=8;endSize=8;" parent="WIyWlLk6GJQsqaUBKTNV-1" source="k07imgYd8GeX-_EpzWMu-241" target="k07imgYd8GeX-_EpzWMu-203" edge="1">
                    <mxGeometry relative="1" as="geometry"/>
                </mxCell>
                <mxCell id="k07imgYd8GeX-_EpzWMu-249" value="No" style="edgeLabel;html=1;align=center;verticalAlign=middle;resizable=0;points=[];fontSize=12;" parent="k07imgYd8GeX-_EpzWMu-248" connectable="0" vertex="1">
                    <mxGeometry x="-0.9207" y="1" relative="1" as="geometry">
                        <mxPoint as="offset"/>
                    </mxGeometry>
                </mxCell>
                <mxCell id="k07imgYd8GeX-_EpzWMu-241" value="Logout?" style="rhombus;whiteSpace=wrap;html=1;strokeWidth=2;rounded=0;" parent="WIyWlLk6GJQsqaUBKTNV-1" vertex="1">
                    <mxGeometry x="-1249.9399999999996" y="-4731" width="132.94" height="80" as="geometry"/>
                </mxCell>
                <mxCell id="k07imgYd8GeX-_EpzWMu-244" value="end" style="strokeWidth=2;html=1;shape=mxgraph.flowchart.terminator;whiteSpace=wrap;" parent="WIyWlLk6GJQsqaUBKTNV-1" vertex="1">
                    <mxGeometry x="-1249.9400000000003" y="-4595" width="134.72" height="50" as="geometry"/>
                </mxCell>
                <mxCell id="k07imgYd8GeX-_EpzWMu-296" value="" style="edgeStyle=orthogonalEdgeStyle;rounded=0;orthogonalLoop=1;jettySize=auto;html=1;fontSize=12;startSize=8;endSize=8;" parent="WIyWlLk6GJQsqaUBKTNV-1" source="k07imgYd8GeX-_EpzWMu-297" target="k07imgYd8GeX-_EpzWMu-310" edge="1">
                    <mxGeometry relative="1" as="geometry"/>
                </mxCell>
                <mxCell id="k07imgYd8GeX-_EpzWMu-297" value="input pilihan" style="shape=parallelogram;perimeter=parallelogramPerimeter;whiteSpace=wrap;html=1;fixedSize=1;align=center;strokeWidth=2;rounded=1;" parent="WIyWlLk6GJQsqaUBKTNV-1" vertex="1">
                    <mxGeometry x="-2400.44" y="-4819.5" width="140" height="49.5" as="geometry"/>
                </mxCell>
                <mxCell id="k07imgYd8GeX-_EpzWMu-298" value="" style="endArrow=classic;html=1;rounded=0;" parent="WIyWlLk6GJQsqaUBKTNV-1" edge="1">
                    <mxGeometry width="50" height="50" relative="1" as="geometry">
                        <mxPoint x="-2424.44" y="-4819.5" as="sourcePoint"/>
                        <mxPoint x="-2374.44" y="-4819.5" as="targetPoint"/>
                    </mxGeometry>
                </mxCell>
                <mxCell id="k07imgYd8GeX-_EpzWMu-302" value="" style="edgeStyle=orthogonalEdgeStyle;rounded=0;orthogonalLoop=1;jettySize=auto;html=1;fontSize=12;startSize=8;endSize=8;" parent="WIyWlLk6GJQsqaUBKTNV-1" source="k07imgYd8GeX-_EpzWMu-303" target="k07imgYd8GeX-_EpzWMu-305" edge="1">
                    <mxGeometry relative="1" as="geometry"/>
                </mxCell>
                <mxCell id="k07imgYd8GeX-_EpzWMu-303" value="menu_user()" style="strokeWidth=2;html=1;shape=mxgraph.flowchart.terminator;whiteSpace=wrap;" parent="WIyWlLk6GJQsqaUBKTNV-1" vertex="1">
                    <mxGeometry x="-2397.8" y="-5000" width="134.72" height="50" as="geometry"/>
                </mxCell>
                <mxCell id="k07imgYd8GeX-_EpzWMu-304" value="" style="edgeStyle=orthogonalEdgeStyle;rounded=0;orthogonalLoop=1;jettySize=auto;html=1;fontSize=12;startSize=8;endSize=8;entryX=0.5;entryY=0;entryDx=0;entryDy=0;" parent="WIyWlLk6GJQsqaUBKTNV-1" source="k07imgYd8GeX-_EpzWMu-305" target="k07imgYd8GeX-_EpzWMu-297" edge="1">
                    <mxGeometry relative="1" as="geometry"/>
                </mxCell>
                <mxCell id="k07imgYd8GeX-_EpzWMu-305" value="Menu Admin" style="rounded=1;whiteSpace=wrap;html=1;strokeWidth=2;" parent="WIyWlLk6GJQsqaUBKTNV-1" vertex="1">
                    <mxGeometry x="-2390.44" y="-4910" width="120" height="50" as="geometry"/>
                </mxCell>
                <mxCell id="k07imgYd8GeX-_EpzWMu-306" value="" style="edgeStyle=orthogonalEdgeStyle;rounded=0;orthogonalLoop=1;jettySize=auto;html=1;fontSize=12;startSize=8;endSize=8;entryX=0;entryY=0.5;entryDx=0;entryDy=0;" parent="WIyWlLk6GJQsqaUBKTNV-1" source="k07imgYd8GeX-_EpzWMu-310" target="k07imgYd8GeX-_EpzWMu-337" edge="1">
                    <mxGeometry relative="1" as="geometry">
                        <mxPoint x="-2220.4399999999996" y="-4691" as="targetPoint"/>
                    </mxGeometry>
                </mxCell>
                <mxCell id="k07imgYd8GeX-_EpzWMu-308" value="" style="edgeStyle=none;curved=1;rounded=0;orthogonalLoop=1;jettySize=auto;html=1;fontSize=12;startSize=8;endSize=8;entryX=0.5;entryY=0;entryDx=0;entryDy=0;" parent="WIyWlLk6GJQsqaUBKTNV-1" source="k07imgYd8GeX-_EpzWMu-310" target="0" edge="1">
                    <mxGeometry relative="1" as="geometry">
                        <mxPoint x="-2330.44" y="-4595" as="targetPoint"/>
                    </mxGeometry>
                </mxCell>
                <mxCell id="k07imgYd8GeX-_EpzWMu-309" value="Yes" style="edgeLabel;html=1;align=center;verticalAlign=middle;resizable=0;points=[];fontSize=12;" parent="k07imgYd8GeX-_EpzWMu-308" connectable="0" vertex="1">
                    <mxGeometry x="-0.0588" relative="1" as="geometry">
                        <mxPoint y="-3" as="offset"/>
                    </mxGeometry>
                </mxCell>
                <mxCell id="k07imgYd8GeX-_EpzWMu-310" value="Tampilkan Data&lt;div&gt;Tanaman?&lt;/div&gt;" style="rhombus;whiteSpace=wrap;html=1;strokeWidth=2;rounded=0;" parent="WIyWlLk6GJQsqaUBKTNV-1" vertex="1">
                    <mxGeometry x="-2396.91" y="-4731" width="132.94" height="80" as="geometry"/>
                </mxCell>
                <mxCell id="k07imgYd8GeX-_EpzWMu-326" style="edgeStyle=orthogonalEdgeStyle;rounded=0;orthogonalLoop=1;jettySize=auto;html=1;entryX=0;entryY=0.5;entryDx=0;entryDy=0;fontSize=12;startSize=8;endSize=8;exitX=0.5;exitY=1;exitDx=0;exitDy=0;" parent="WIyWlLk6GJQsqaUBKTNV-1" source="0" target="k07imgYd8GeX-_EpzWMu-305" edge="1">
                    <mxGeometry relative="1" as="geometry">
                        <mxPoint x="-2280" y="-4480" as="sourcePoint"/>
                        <Array as="points">
                            <mxPoint x="-2330" y="-4510"/>
                            <mxPoint x="-2447" y="-4510"/>
                            <mxPoint x="-2447" y="-4885"/>
                        </Array>
                    </mxGeometry>
                </mxCell>
                <mxCell id="k07imgYd8GeX-_EpzWMu-333" value="" style="edgeStyle=none;curved=1;rounded=0;orthogonalLoop=1;jettySize=auto;html=1;fontSize=12;startSize=8;endSize=8;" parent="WIyWlLk6GJQsqaUBKTNV-1" source="k07imgYd8GeX-_EpzWMu-337" target="k07imgYd8GeX-_EpzWMu-338" edge="1">
                    <mxGeometry relative="1" as="geometry"/>
                </mxCell>
                <mxCell id="k07imgYd8GeX-_EpzWMu-334" value="Yes" style="edgeLabel;html=1;align=center;verticalAlign=middle;resizable=0;points=[];fontSize=12;" parent="k07imgYd8GeX-_EpzWMu-333" connectable="0" vertex="1">
                    <mxGeometry x="-0.2075" relative="1" as="geometry">
                        <mxPoint as="offset"/>
                    </mxGeometry>
                </mxCell>
                <mxCell id="k07imgYd8GeX-_EpzWMu-335" style="edgeStyle=orthogonalEdgeStyle;rounded=0;orthogonalLoop=1;jettySize=auto;html=1;exitX=0.5;exitY=0;exitDx=0;exitDy=0;entryX=1;entryY=0.5;entryDx=0;entryDy=0;fontSize=12;startSize=8;endSize=8;" parent="WIyWlLk6GJQsqaUBKTNV-1" source="k07imgYd8GeX-_EpzWMu-337" target="k07imgYd8GeX-_EpzWMu-305" edge="1">
                    <mxGeometry relative="1" as="geometry"/>
                </mxCell>
                <mxCell id="k07imgYd8GeX-_EpzWMu-336" value="No" style="edgeLabel;html=1;align=center;verticalAlign=middle;resizable=0;points=[];fontSize=12;" parent="k07imgYd8GeX-_EpzWMu-335" connectable="0" vertex="1">
                    <mxGeometry x="-0.9207" y="1" relative="1" as="geometry">
                        <mxPoint as="offset"/>
                    </mxGeometry>
                </mxCell>
                <mxCell id="k07imgYd8GeX-_EpzWMu-337" value="Logout?" style="rhombus;whiteSpace=wrap;html=1;strokeWidth=2;rounded=0;" parent="WIyWlLk6GJQsqaUBKTNV-1" vertex="1">
                    <mxGeometry x="-2214.7499999999995" y="-4731" width="132.94" height="80" as="geometry"/>
                </mxCell>
                <mxCell id="k07imgYd8GeX-_EpzWMu-338" value="end" style="strokeWidth=2;html=1;shape=mxgraph.flowchart.terminator;whiteSpace=wrap;" parent="WIyWlLk6GJQsqaUBKTNV-1" vertex="1">
                    <mxGeometry x="-2214.75" y="-4595" width="134.72" height="50" as="geometry"/>
                </mxCell>
                <mxCell id="k07imgYd8GeX-_EpzWMu-363" value="" style="edgeStyle=none;curved=1;rounded=0;orthogonalLoop=1;jettySize=auto;html=1;fontSize=12;startSize=8;endSize=8;entryX=0.5;entryY=0;entryDx=0;entryDy=0;" parent="WIyWlLk6GJQsqaUBKTNV-1" source="k07imgYd8GeX-_EpzWMu-343" target="k07imgYd8GeX-_EpzWMu-364" edge="1">
                    <mxGeometry relative="1" as="geometry">
                        <mxPoint x="-1785.3600000000001" y="-5730" as="targetPoint"/>
                    </mxGeometry>
                </mxCell>
                <mxCell id="k07imgYd8GeX-_EpzWMu-343" value="registrasi()" style="strokeWidth=2;html=1;shape=mxgraph.flowchart.terminator;whiteSpace=wrap;" parent="WIyWlLk6GJQsqaUBKTNV-1" vertex="1">
                    <mxGeometry x="-1852.72" y="-5830" width="134.72" height="50" as="geometry"/>
                </mxCell>
                <mxCell id="k07imgYd8GeX-_EpzWMu-373" value="" style="edgeStyle=none;curved=1;rounded=0;orthogonalLoop=1;jettySize=auto;html=1;fontSize=12;startSize=8;endSize=8;" parent="WIyWlLk6GJQsqaUBKTNV-1" source="k07imgYd8GeX-_EpzWMu-364" target="k07imgYd8GeX-_EpzWMu-370" edge="1">
                    <mxGeometry relative="1" as="geometry"/>
                </mxCell>
                <mxCell id="k07imgYd8GeX-_EpzWMu-364" value="input username" style="shape=parallelogram;perimeter=parallelogramPerimeter;whiteSpace=wrap;html=1;fixedSize=1;align=center;strokeWidth=2;rounded=1;" parent="WIyWlLk6GJQsqaUBKTNV-1" vertex="1">
                    <mxGeometry x="-1855.3599999999997" y="-5740" width="140" height="49.5" as="geometry"/>
                </mxCell>
                <mxCell id="k07imgYd8GeX-_EpzWMu-365" value="" style="endArrow=classic;html=1;rounded=0;" parent="WIyWlLk6GJQsqaUBKTNV-1" edge="1">
                    <mxGeometry width="50" height="50" relative="1" as="geometry">
                        <mxPoint x="-1881.36" y="-5740" as="sourcePoint"/>
                        <mxPoint x="-1831.36" y="-5740" as="targetPoint"/>
                    </mxGeometry>
                </mxCell>
                <mxCell id="k07imgYd8GeX-_EpzWMu-376" value="" style="edgeStyle=none;curved=1;rounded=0;orthogonalLoop=1;jettySize=auto;html=1;fontSize=12;startSize=8;endSize=8;entryX=0.5;entryY=0;entryDx=0;entryDy=0;" parent="WIyWlLk6GJQsqaUBKTNV-1" source="k07imgYd8GeX-_EpzWMu-370" target="k07imgYd8GeX-_EpzWMu-377" edge="1">
                    <mxGeometry relative="1" as="geometry">
                        <mxPoint x="-1785.3599999999997" y="-5541" as="targetPoint"/>
                    </mxGeometry>
                </mxCell>
                <mxCell id="k07imgYd8GeX-_EpzWMu-370" value="input password" style="shape=parallelogram;perimeter=parallelogramPerimeter;whiteSpace=wrap;html=1;fixedSize=1;align=center;strokeWidth=2;rounded=1;" parent="WIyWlLk6GJQsqaUBKTNV-1" vertex="1">
                    <mxGeometry x="-1855.3599999999997" y="-5650" width="140" height="49.5" as="geometry"/>
                </mxCell>
                <mxCell id="k07imgYd8GeX-_EpzWMu-371" value="" style="endArrow=classic;html=1;rounded=0;" parent="WIyWlLk6GJQsqaUBKTNV-1" edge="1">
                    <mxGeometry width="50" height="50" relative="1" as="geometry">
                        <mxPoint x="-1881.36" y="-5650" as="sourcePoint"/>
                        <mxPoint x="-1831.36" y="-5650" as="targetPoint"/>
                    </mxGeometry>
                </mxCell>
                <mxCell id="k07imgYd8GeX-_EpzWMu-374" value="user" style="strokeWidth=2;html=1;shape=mxgraph.flowchart.database;whiteSpace=wrap;" parent="WIyWlLk6GJQsqaUBKTNV-1" vertex="1">
                    <mxGeometry x="-1681.54" y="-5566" width="60" height="60" as="geometry"/>
                </mxCell>
                <mxCell id="k07imgYd8GeX-_EpzWMu-378" value="" style="edgeStyle=none;curved=1;rounded=0;orthogonalLoop=1;jettySize=auto;html=1;fontSize=12;startSize=8;endSize=8;" parent="WIyWlLk6GJQsqaUBKTNV-1" source="k07imgYd8GeX-_EpzWMu-377" target="k07imgYd8GeX-_EpzWMu-374" edge="1">
                    <mxGeometry relative="1" as="geometry"/>
                </mxCell>
                <mxCell id="k07imgYd8GeX-_EpzWMu-380" value="" style="edgeStyle=none;curved=1;rounded=0;orthogonalLoop=1;jettySize=auto;html=1;fontSize=12;startSize=8;endSize=8;" parent="WIyWlLk6GJQsqaUBKTNV-1" source="k07imgYd8GeX-_EpzWMu-377" target="k07imgYd8GeX-_EpzWMu-379" edge="1">
                    <mxGeometry relative="1" as="geometry"/>
                </mxCell>
                <mxCell id="k07imgYd8GeX-_EpzWMu-377" value="Simpan Data Pengguna" style="rounded=1;whiteSpace=wrap;html=1;strokeWidth=2;" parent="WIyWlLk6GJQsqaUBKTNV-1" vertex="1">
                    <mxGeometry x="-1845.36" y="-5561" width="120" height="50" as="geometry"/>
                </mxCell>
                <mxCell id="k07imgYd8GeX-_EpzWMu-379" value="end" style="strokeWidth=2;html=1;shape=mxgraph.flowchart.terminator;whiteSpace=wrap;" parent="WIyWlLk6GJQsqaUBKTNV-1" vertex="1">
                    <mxGeometry x="-1852.72" y="-5475" width="134.72" height="50" as="geometry"/>
                </mxCell>
                <mxCell id="k07imgYd8GeX-_EpzWMu-381" value="" style="edgeStyle=none;curved=1;rounded=0;orthogonalLoop=1;jettySize=auto;html=1;fontSize=12;startSize=8;endSize=8;entryX=0.5;entryY=0;entryDx=0;entryDy=0;" parent="WIyWlLk6GJQsqaUBKTNV-1" source="k07imgYd8GeX-_EpzWMu-382" target="k07imgYd8GeX-_EpzWMu-384" edge="1">
                    <mxGeometry relative="1" as="geometry">
                        <mxPoint x="-1318.3300000000002" y="-5730" as="targetPoint"/>
                    </mxGeometry>
                </mxCell>
                <mxCell id="k07imgYd8GeX-_EpzWMu-382" value="login()" style="strokeWidth=2;html=1;shape=mxgraph.flowchart.terminator;whiteSpace=wrap;" parent="WIyWlLk6GJQsqaUBKTNV-1" vertex="1">
                    <mxGeometry x="-1385.69" y="-5830" width="134.72" height="50" as="geometry"/>
                </mxCell>
                <mxCell id="k07imgYd8GeX-_EpzWMu-383" value="" style="edgeStyle=none;curved=1;rounded=0;orthogonalLoop=1;jettySize=auto;html=1;fontSize=12;startSize=8;endSize=8;" parent="WIyWlLk6GJQsqaUBKTNV-1" source="k07imgYd8GeX-_EpzWMu-384" target="k07imgYd8GeX-_EpzWMu-386" edge="1">
                    <mxGeometry relative="1" as="geometry"/>
                </mxCell>
                <mxCell id="k07imgYd8GeX-_EpzWMu-384" value="input username" style="shape=parallelogram;perimeter=parallelogramPerimeter;whiteSpace=wrap;html=1;fixedSize=1;align=center;strokeWidth=2;rounded=1;" parent="WIyWlLk6GJQsqaUBKTNV-1" vertex="1">
                    <mxGeometry x="-1388.3299999999997" y="-5740" width="140" height="49.5" as="geometry"/>
                </mxCell>
                <mxCell id="k07imgYd8GeX-_EpzWMu-385" value="" style="edgeStyle=orthogonalEdgeStyle;rounded=0;orthogonalLoop=1;jettySize=auto;html=1;fontSize=12;startSize=8;endSize=8;entryX=0.5;entryY=0;entryDx=0;entryDy=0;" parent="WIyWlLk6GJQsqaUBKTNV-1" source="k07imgYd8GeX-_EpzWMu-386" target="k07imgYd8GeX-_EpzWMu-394" edge="1">
                    <mxGeometry relative="1" as="geometry">
                        <mxPoint x="-1318.33" y="-5561" as="targetPoint"/>
                    </mxGeometry>
                </mxCell>
                <mxCell id="k07imgYd8GeX-_EpzWMu-386" value="input password" style="shape=parallelogram;perimeter=parallelogramPerimeter;whiteSpace=wrap;html=1;fixedSize=1;align=center;strokeWidth=2;rounded=1;" parent="WIyWlLk6GJQsqaUBKTNV-1" vertex="1">
                    <mxGeometry x="-1388.3299999999997" y="-5650" width="140" height="49.5" as="geometry"/>
                </mxCell>
                <mxCell id="k07imgYd8GeX-_EpzWMu-392" value="" style="edgeStyle=none;curved=1;rounded=0;orthogonalLoop=1;jettySize=auto;html=1;fontSize=12;startSize=8;endSize=8;entryX=1;entryY=0.5;entryDx=0;entryDy=0;" parent="WIyWlLk6GJQsqaUBKTNV-1" source="k07imgYd8GeX-_EpzWMu-387" target="k07imgYd8GeX-_EpzWMu-394" edge="1">
                    <mxGeometry relative="1" as="geometry">
                        <mxPoint x="-1258.33" y="-5536" as="targetPoint"/>
                    </mxGeometry>
                </mxCell>
                <mxCell id="k07imgYd8GeX-_EpzWMu-387" value="user" style="strokeWidth=2;html=1;shape=mxgraph.flowchart.database;whiteSpace=wrap;" parent="WIyWlLk6GJQsqaUBKTNV-1" vertex="1">
                    <mxGeometry x="-1208.33" y="-5556" width="60" height="60" as="geometry"/>
                </mxCell>
                <mxCell id="k07imgYd8GeX-_EpzWMu-391" value="end" style="strokeWidth=2;html=1;shape=mxgraph.flowchart.terminator;whiteSpace=wrap;" parent="WIyWlLk6GJQsqaUBKTNV-1" vertex="1">
                    <mxGeometry x="-1385.6899999999998" y="-5435" width="134.72" height="50" as="geometry"/>
                </mxCell>
                <mxCell id="k07imgYd8GeX-_EpzWMu-399" style="edgeStyle=orthogonalEdgeStyle;rounded=0;orthogonalLoop=1;jettySize=auto;html=1;exitX=0;exitY=0.5;exitDx=0;exitDy=0;entryX=0.5;entryY=1;entryDx=0;entryDy=0;fontSize=12;startSize=8;endSize=8;" parent="WIyWlLk6GJQsqaUBKTNV-1" source="k07imgYd8GeX-_EpzWMu-394" target="k07imgYd8GeX-_EpzWMu-406" edge="1">
                    <mxGeometry relative="1" as="geometry">
                        <Array as="points">
                            <mxPoint x="-1506.36" y="-5526"/>
                            <mxPoint x="-1506.36" y="-5604"/>
                        </Array>
                    </mxGeometry>
                </mxCell>
                <mxCell id="k07imgYd8GeX-_EpzWMu-400" value="No" style="edgeLabel;html=1;align=center;verticalAlign=middle;resizable=0;points=[];fontSize=12;" parent="k07imgYd8GeX-_EpzWMu-399" connectable="0" vertex="1">
                    <mxGeometry x="-0.8858" y="-2" relative="1" as="geometry">
                        <mxPoint x="-9" y="2" as="offset"/>
                    </mxGeometry>
                </mxCell>
                <mxCell id="k07imgYd8GeX-_EpzWMu-403" value="" style="edgeStyle=orthogonalEdgeStyle;rounded=0;orthogonalLoop=1;jettySize=auto;html=1;fontSize=12;startSize=8;endSize=8;entryX=0.5;entryY=0;entryDx=0;entryDy=0;entryPerimeter=0;" parent="WIyWlLk6GJQsqaUBKTNV-1" source="k07imgYd8GeX-_EpzWMu-394" target="k07imgYd8GeX-_EpzWMu-391" edge="1">
                    <mxGeometry relative="1" as="geometry">
                        <mxPoint x="-1318.3599999999997" y="-5440" as="targetPoint"/>
                    </mxGeometry>
                </mxCell>
                <mxCell id="k07imgYd8GeX-_EpzWMu-410" value="Yes" style="edgeLabel;html=1;align=center;verticalAlign=middle;resizable=0;points=[];fontSize=12;" parent="k07imgYd8GeX-_EpzWMu-403" connectable="0" vertex="1">
                    <mxGeometry x="-0.224" y="-1" relative="1" as="geometry">
                        <mxPoint y="3" as="offset"/>
                    </mxGeometry>
                </mxCell>
                <mxCell id="k07imgYd8GeX-_EpzWMu-394" value="Username dan password benar?" style="rhombus;whiteSpace=wrap;html=1;strokeWidth=2;rounded=0;" parent="WIyWlLk6GJQsqaUBKTNV-1" vertex="1">
                    <mxGeometry x="-1384.7999999999997" y="-5566" width="132.94" height="80" as="geometry"/>
                </mxCell>
                <mxCell id="k07imgYd8GeX-_EpzWMu-404" value="" style="endArrow=classic;html=1;rounded=0;" parent="WIyWlLk6GJQsqaUBKTNV-1" edge="1">
                    <mxGeometry width="50" height="50" relative="1" as="geometry">
                        <mxPoint x="-1413" y="-5740.57" as="sourcePoint"/>
                        <mxPoint x="-1363" y="-5740.57" as="targetPoint"/>
                    </mxGeometry>
                </mxCell>
                <mxCell id="k07imgYd8GeX-_EpzWMu-405" value="" style="endArrow=classic;html=1;rounded=0;" parent="WIyWlLk6GJQsqaUBKTNV-1" edge="1">
                    <mxGeometry width="50" height="50" relative="1" as="geometry">
                        <mxPoint x="-1413" y="-5650.57" as="sourcePoint"/>
                        <mxPoint x="-1363" y="-5650.57" as="targetPoint"/>
                    </mxGeometry>
                </mxCell>
                <mxCell id="k07imgYd8GeX-_EpzWMu-408" style="edgeStyle=orthogonalEdgeStyle;rounded=0;orthogonalLoop=1;jettySize=auto;html=1;exitX=0.5;exitY=0;exitDx=0;exitDy=0;entryX=0;entryY=0.5;entryDx=0;entryDy=0;fontSize=12;startSize=8;endSize=8;" parent="WIyWlLk6GJQsqaUBKTNV-1" source="k07imgYd8GeX-_EpzWMu-406" target="k07imgYd8GeX-_EpzWMu-384" edge="1">
                    <mxGeometry relative="1" as="geometry">
                        <Array as="points">
                            <mxPoint x="-1498.36" y="-5715"/>
                            <mxPoint x="-1378.36" y="-5715"/>
                        </Array>
                    </mxGeometry>
                </mxCell>
                <mxCell id="k07imgYd8GeX-_EpzWMu-406" value="output &quot;Username atau Password salah&quot;" style="shape=parallelogram;perimeter=parallelogramPerimeter;whiteSpace=wrap;html=1;fixedSize=1;align=center;strokeWidth=2;rounded=1;" parent="WIyWlLk6GJQsqaUBKTNV-1" vertex="1">
                    <mxGeometry x="-1585.36" y="-5653.25" width="157.03" height="49.5" as="geometry"/>
                </mxCell>
                <mxCell id="k07imgYd8GeX-_EpzWMu-407" value="" style="endArrow=classic;html=1;rounded=0;" parent="WIyWlLk6GJQsqaUBKTNV-1" edge="1">
                    <mxGeometry width="50" height="50" relative="1" as="geometry">
                        <mxPoint x="-1458.36" y="-5603.75" as="sourcePoint"/>
                        <mxPoint x="-1408.36" y="-5603.75" as="targetPoint"/>
                    </mxGeometry>
                </mxCell>
                <mxCell id="k07imgYd8GeX-_EpzWMu-413" value="" style="edgeStyle=none;curved=1;rounded=0;orthogonalLoop=1;jettySize=auto;html=1;fontSize=12;startSize=8;endSize=8;entryX=0.5;entryY=0;entryDx=0;entryDy=0;entryPerimeter=0;" parent="WIyWlLk6GJQsqaUBKTNV-1" source="k07imgYd8GeX-_EpzWMu-412" target="YAqZieZyHoKQM85FhkUF-62" edge="1">
                    <mxGeometry relative="1" as="geometry"/>
                </mxCell>
                <mxCell id="k07imgYd8GeX-_EpzWMu-412" value="login()" style="shape=process;whiteSpace=wrap;html=1;backgroundOutline=1;strokeWidth=2;" parent="WIyWlLk6GJQsqaUBKTNV-1" vertex="1">
                    <mxGeometry x="-2260.3199999999997" y="-5516.25" width="120" height="60" as="geometry"/>
                </mxCell>
                <mxCell id="k07imgYd8GeX-_EpzWMu-422" value="" style="edgeStyle=none;curved=1;rounded=0;orthogonalLoop=1;jettySize=auto;html=1;fontSize=12;startSize=8;endSize=8;entryX=0.5;entryY=0;entryDx=0;entryDy=0;" parent="WIyWlLk6GJQsqaUBKTNV-1" source="k07imgYd8GeX-_EpzWMu-423" target="k07imgYd8GeX-_EpzWMu-425" edge="1">
                    <mxGeometry relative="1" as="geometry">
                        <mxPoint x="-2100" y="-4355" as="targetPoint"/>
                    </mxGeometry>
                </mxCell>
                <mxCell id="k07imgYd8GeX-_EpzWMu-423" value="tambahkan_data()" style="strokeWidth=2;html=1;shape=mxgraph.flowchart.terminator;whiteSpace=wrap;" parent="WIyWlLk6GJQsqaUBKTNV-1" vertex="1">
                    <mxGeometry x="-2167.36" y="-4455" width="134.72" height="50" as="geometry"/>
                </mxCell>
                <mxCell id="k07imgYd8GeX-_EpzWMu-424" value="" style="edgeStyle=none;curved=1;rounded=0;orthogonalLoop=1;jettySize=auto;html=1;fontSize=12;startSize=8;endSize=8;" parent="WIyWlLk6GJQsqaUBKTNV-1" source="k07imgYd8GeX-_EpzWMu-425" target="k07imgYd8GeX-_EpzWMu-428" edge="1">
                    <mxGeometry relative="1" as="geometry"/>
                </mxCell>
                <mxCell id="k07imgYd8GeX-_EpzWMu-425" value="input nama_tanaman" style="shape=parallelogram;perimeter=parallelogramPerimeter;whiteSpace=wrap;html=1;fixedSize=1;align=center;strokeWidth=2;rounded=1;" parent="WIyWlLk6GJQsqaUBKTNV-1" vertex="1">
                    <mxGeometry x="-2169.9999999999995" y="-4365" width="140" height="49.5" as="geometry"/>
                </mxCell>
                <mxCell id="k07imgYd8GeX-_EpzWMu-426" value="" style="endArrow=classic;html=1;rounded=0;" parent="WIyWlLk6GJQsqaUBKTNV-1" edge="1">
                    <mxGeometry width="50" height="50" relative="1" as="geometry">
                        <mxPoint x="-2196" y="-4365" as="sourcePoint"/>
                        <mxPoint x="-2146" y="-4365" as="targetPoint"/>
                    </mxGeometry>
                </mxCell>
                <mxCell id="k07imgYd8GeX-_EpzWMu-427" value="" style="edgeStyle=none;curved=1;rounded=0;orthogonalLoop=1;jettySize=auto;html=1;fontSize=12;startSize=8;endSize=8;entryX=0.5;entryY=0;entryDx=0;entryDy=0;exitX=0.5;exitY=1;exitDx=0;exitDy=0;" parent="WIyWlLk6GJQsqaUBKTNV-1" source="k07imgYd8GeX-_EpzWMu-438" target="k07imgYd8GeX-_EpzWMu-433" edge="1">
                    <mxGeometry relative="1" as="geometry">
                        <mxPoint x="-2099.9999999999995" y="-3990" as="sourcePoint"/>
                        <mxPoint x="-2099.9999999999995" y="-3930.5" as="targetPoint"/>
                    </mxGeometry>
                </mxCell>
                <mxCell id="k07imgYd8GeX-_EpzWMu-440" value="" style="edgeStyle=none;curved=1;rounded=0;orthogonalLoop=1;jettySize=auto;html=1;fontSize=12;startSize=8;endSize=8;" parent="WIyWlLk6GJQsqaUBKTNV-1" source="k07imgYd8GeX-_EpzWMu-428" target="k07imgYd8GeX-_EpzWMu-438" edge="1">
                    <mxGeometry relative="1" as="geometry"/>
                </mxCell>
                <mxCell id="k07imgYd8GeX-_EpzWMu-428" value="input jenis_tanaman" style="shape=parallelogram;perimeter=parallelogramPerimeter;whiteSpace=wrap;html=1;fixedSize=1;align=center;strokeWidth=2;rounded=1;" parent="WIyWlLk6GJQsqaUBKTNV-1" vertex="1">
                    <mxGeometry x="-2169.9999999999995" y="-4275" width="140" height="49.5" as="geometry"/>
                </mxCell>
                <mxCell id="k07imgYd8GeX-_EpzWMu-429" value="" style="endArrow=classic;html=1;rounded=0;" parent="WIyWlLk6GJQsqaUBKTNV-1" edge="1">
                    <mxGeometry width="50" height="50" relative="1" as="geometry">
                        <mxPoint x="-2196" y="-4275" as="sourcePoint"/>
                        <mxPoint x="-2146" y="-4275" as="targetPoint"/>
                    </mxGeometry>
                </mxCell>
                <mxCell id="k07imgYd8GeX-_EpzWMu-430" value="tanaman" style="strokeWidth=2;html=1;shape=mxgraph.flowchart.database;whiteSpace=wrap;" parent="WIyWlLk6GJQsqaUBKTNV-1" vertex="1">
                    <mxGeometry x="-1996.1799999999998" y="-4090" width="60" height="60" as="geometry"/>
                </mxCell>
                <mxCell id="k07imgYd8GeX-_EpzWMu-431" value="" style="edgeStyle=none;curved=1;rounded=0;orthogonalLoop=1;jettySize=auto;html=1;fontSize=12;startSize=8;endSize=8;" parent="WIyWlLk6GJQsqaUBKTNV-1" source="k07imgYd8GeX-_EpzWMu-433" target="k07imgYd8GeX-_EpzWMu-430" edge="1">
                    <mxGeometry relative="1" as="geometry"/>
                </mxCell>
                <mxCell id="k07imgYd8GeX-_EpzWMu-432" value="" style="edgeStyle=none;curved=1;rounded=0;orthogonalLoop=1;jettySize=auto;html=1;fontSize=12;startSize=8;endSize=8;" parent="WIyWlLk6GJQsqaUBKTNV-1" source="k07imgYd8GeX-_EpzWMu-433" target="k07imgYd8GeX-_EpzWMu-434" edge="1">
                    <mxGeometry relative="1" as="geometry"/>
                </mxCell>
                <mxCell id="k07imgYd8GeX-_EpzWMu-433" value="Simpan Data Tanaman" style="rounded=1;whiteSpace=wrap;html=1;strokeWidth=2;" parent="WIyWlLk6GJQsqaUBKTNV-1" vertex="1">
                    <mxGeometry x="-2160" y="-4085" width="120" height="50" as="geometry"/>
                </mxCell>
                <mxCell id="k07imgYd8GeX-_EpzWMu-434" value="end" style="strokeWidth=2;html=1;shape=mxgraph.flowchart.terminator;whiteSpace=wrap;" parent="WIyWlLk6GJQsqaUBKTNV-1" vertex="1">
                    <mxGeometry x="-2167.36" y="-3999" width="134.72" height="50" as="geometry"/>
                </mxCell>
                <mxCell id="k07imgYd8GeX-_EpzWMu-438" value="input jadwal_siram" style="shape=parallelogram;perimeter=parallelogramPerimeter;whiteSpace=wrap;html=1;fixedSize=1;align=center;strokeWidth=2;rounded=1;" parent="WIyWlLk6GJQsqaUBKTNV-1" vertex="1">
                    <mxGeometry x="-2169.8799999999997" y="-4180" width="140" height="49.5" as="geometry"/>
                </mxCell>
                <mxCell id="k07imgYd8GeX-_EpzWMu-439" value="" style="endArrow=classic;html=1;rounded=0;" parent="WIyWlLk6GJQsqaUBKTNV-1" edge="1">
                    <mxGeometry width="50" height="50" relative="1" as="geometry">
                        <mxPoint x="-2195.88" y="-4180" as="sourcePoint"/>
                        <mxPoint x="-2145.88" y="-4180" as="targetPoint"/>
                    </mxGeometry>
                </mxCell>
                <mxCell id="k07imgYd8GeX-_EpzWMu-441" value="" style="edgeStyle=none;curved=1;rounded=0;orthogonalLoop=1;jettySize=auto;html=1;fontSize=12;startSize=8;endSize=8;entryX=0.5;entryY=0;entryDx=0;entryDy=0;" parent="WIyWlLk6GJQsqaUBKTNV-1" source="k07imgYd8GeX-_EpzWMu-442" target="k07imgYd8GeX-_EpzWMu-444" edge="1">
                    <mxGeometry relative="1" as="geometry">
                        <mxPoint x="-2380" y="-4355" as="targetPoint"/>
                    </mxGeometry>
                </mxCell>
                <mxCell id="k07imgYd8GeX-_EpzWMu-442" value="tampilkan_data()" style="strokeWidth=2;html=1;shape=mxgraph.flowchart.terminator;whiteSpace=wrap;" parent="WIyWlLk6GJQsqaUBKTNV-1" vertex="1">
                    <mxGeometry x="-2447.36" y="-4455" width="134.72" height="50" as="geometry"/>
                </mxCell>
                <mxCell id="k07imgYd8GeX-_EpzWMu-443" value="" style="edgeStyle=none;curved=1;rounded=0;orthogonalLoop=1;jettySize=auto;html=1;fontSize=12;startSize=8;endSize=8;entryX=0.5;entryY=0;entryDx=0;entryDy=0;entryPerimeter=0;" parent="WIyWlLk6GJQsqaUBKTNV-1" source="k07imgYd8GeX-_EpzWMu-444" target="k07imgYd8GeX-_EpzWMu-454" edge="1">
                    <mxGeometry relative="1" as="geometry">
                        <mxPoint x="-2379.9999999999995" y="-4275" as="targetPoint"/>
                    </mxGeometry>
                </mxCell>
                <mxCell id="k07imgYd8GeX-_EpzWMu-444" value="output data_tanaman" style="shape=parallelogram;perimeter=parallelogramPerimeter;whiteSpace=wrap;html=1;fixedSize=1;align=center;strokeWidth=2;rounded=1;" parent="WIyWlLk6GJQsqaUBKTNV-1" vertex="1">
                    <mxGeometry x="-2449.9999999999995" y="-4365" width="140" height="49.5" as="geometry"/>
                </mxCell>
                <mxCell id="k07imgYd8GeX-_EpzWMu-445" value="" style="endArrow=classic;html=1;rounded=0;" parent="WIyWlLk6GJQsqaUBKTNV-1" edge="1">
                    <mxGeometry width="50" height="50" relative="1" as="geometry">
                        <mxPoint x="-2336" y="-4315.5" as="sourcePoint"/>
                        <mxPoint x="-2286" y="-4315.5" as="targetPoint"/>
                    </mxGeometry>
                </mxCell>
                <mxCell id="k07imgYd8GeX-_EpzWMu-457" value="" style="edgeStyle=none;curved=1;rounded=0;orthogonalLoop=1;jettySize=auto;html=1;fontSize=12;startSize=8;endSize=8;" parent="WIyWlLk6GJQsqaUBKTNV-1" source="k07imgYd8GeX-_EpzWMu-450" target="k07imgYd8GeX-_EpzWMu-444" edge="1">
                    <mxGeometry relative="1" as="geometry"/>
                </mxCell>
                <mxCell id="k07imgYd8GeX-_EpzWMu-450" value="tanaman" style="strokeWidth=2;html=1;shape=mxgraph.flowchart.database;whiteSpace=wrap;" parent="WIyWlLk6GJQsqaUBKTNV-1" vertex="1">
                    <mxGeometry x="-2276" y="-4370.25" width="60" height="60" as="geometry"/>
                </mxCell>
                <mxCell id="k07imgYd8GeX-_EpzWMu-454" value="end" style="strokeWidth=2;html=1;shape=mxgraph.flowchart.terminator;whiteSpace=wrap;" parent="WIyWlLk6GJQsqaUBKTNV-1" vertex="1">
                    <mxGeometry x="-2447.36" y="-4275" width="134.72" height="50" as="geometry"/>
                </mxCell>
                <mxCell id="k07imgYd8GeX-_EpzWMu-475" value="" style="edgeStyle=none;curved=1;rounded=0;orthogonalLoop=1;jettySize=auto;html=1;fontSize=12;startSize=8;endSize=8;" parent="WIyWlLk6GJQsqaUBKTNV-1" source="k07imgYd8GeX-_EpzWMu-459" target="k07imgYd8GeX-_EpzWMu-474" edge="1">
                    <mxGeometry relative="1" as="geometry"/>
                </mxCell>
                <mxCell id="k07imgYd8GeX-_EpzWMu-459" value="update_data()" style="strokeWidth=2;html=1;shape=mxgraph.flowchart.terminator;whiteSpace=wrap;" parent="WIyWlLk6GJQsqaUBKTNV-1" vertex="1">
                    <mxGeometry x="-1881.3600000000001" y="-4454" width="134.72" height="50" as="geometry"/>
                </mxCell>
                <mxCell id="k07imgYd8GeX-_EpzWMu-460" value="" style="edgeStyle=none;curved=1;rounded=0;orthogonalLoop=1;jettySize=auto;html=1;fontSize=12;startSize=8;endSize=8;" parent="WIyWlLk6GJQsqaUBKTNV-1" source="k07imgYd8GeX-_EpzWMu-461" target="k07imgYd8GeX-_EpzWMu-465" edge="1">
                    <mxGeometry relative="1" as="geometry"/>
                </mxCell>
                <mxCell id="k07imgYd8GeX-_EpzWMu-461" value="input nama_baru" style="shape=parallelogram;perimeter=parallelogramPerimeter;whiteSpace=wrap;html=1;fixedSize=1;align=center;strokeWidth=2;rounded=1;" parent="WIyWlLk6GJQsqaUBKTNV-1" vertex="1">
                    <mxGeometry x="-1883.9999999999995" y="-4180" width="140" height="49.5" as="geometry"/>
                </mxCell>
                <mxCell id="k07imgYd8GeX-_EpzWMu-462" value="" style="endArrow=classic;html=1;rounded=0;" parent="WIyWlLk6GJQsqaUBKTNV-1" edge="1">
                    <mxGeometry width="50" height="50" relative="1" as="geometry">
                        <mxPoint x="-1910" y="-4180" as="sourcePoint"/>
                        <mxPoint x="-1860" y="-4180" as="targetPoint"/>
                    </mxGeometry>
                </mxCell>
                <mxCell id="k07imgYd8GeX-_EpzWMu-463" value="" style="edgeStyle=none;curved=1;rounded=0;orthogonalLoop=1;jettySize=auto;html=1;fontSize=12;startSize=8;endSize=8;entryX=0.5;entryY=0;entryDx=0;entryDy=0;exitX=0.5;exitY=1;exitDx=0;exitDy=0;" parent="WIyWlLk6GJQsqaUBKTNV-1" source="k07imgYd8GeX-_EpzWMu-472" target="k07imgYd8GeX-_EpzWMu-470" edge="1">
                    <mxGeometry relative="1" as="geometry">
                        <mxPoint x="-1813.9999999999995" y="-3805" as="sourcePoint"/>
                        <mxPoint x="-1813.9999999999995" y="-3745.5" as="targetPoint"/>
                    </mxGeometry>
                </mxCell>
                <mxCell id="k07imgYd8GeX-_EpzWMu-464" value="" style="edgeStyle=none;curved=1;rounded=0;orthogonalLoop=1;jettySize=auto;html=1;fontSize=12;startSize=8;endSize=8;" parent="WIyWlLk6GJQsqaUBKTNV-1" source="k07imgYd8GeX-_EpzWMu-465" target="k07imgYd8GeX-_EpzWMu-472" edge="1">
                    <mxGeometry relative="1" as="geometry"/>
                </mxCell>
                <mxCell id="k07imgYd8GeX-_EpzWMu-465" value="input jenis_baru" style="shape=parallelogram;perimeter=parallelogramPerimeter;whiteSpace=wrap;html=1;fixedSize=1;align=center;strokeWidth=2;rounded=1;" parent="WIyWlLk6GJQsqaUBKTNV-1" vertex="1">
                    <mxGeometry x="-1883.9999999999995" y="-4090" width="140" height="49.5" as="geometry"/>
                </mxCell>
                <mxCell id="k07imgYd8GeX-_EpzWMu-466" value="" style="endArrow=classic;html=1;rounded=0;" parent="WIyWlLk6GJQsqaUBKTNV-1" edge="1">
                    <mxGeometry width="50" height="50" relative="1" as="geometry">
                        <mxPoint x="-1910" y="-4090" as="sourcePoint"/>
                        <mxPoint x="-1860" y="-4090" as="targetPoint"/>
                    </mxGeometry>
                </mxCell>
                <mxCell id="k07imgYd8GeX-_EpzWMu-467" value="tanaman" style="strokeWidth=2;html=1;shape=mxgraph.flowchart.database;whiteSpace=wrap;" parent="WIyWlLk6GJQsqaUBKTNV-1" vertex="1">
                    <mxGeometry x="-1710.1799999999998" y="-3905" width="60" height="60" as="geometry"/>
                </mxCell>
                <mxCell id="k07imgYd8GeX-_EpzWMu-468" value="" style="edgeStyle=none;curved=1;rounded=0;orthogonalLoop=1;jettySize=auto;html=1;fontSize=12;startSize=8;endSize=8;" parent="WIyWlLk6GJQsqaUBKTNV-1" source="k07imgYd8GeX-_EpzWMu-470" target="k07imgYd8GeX-_EpzWMu-467" edge="1">
                    <mxGeometry relative="1" as="geometry"/>
                </mxCell>
                <mxCell id="k07imgYd8GeX-_EpzWMu-469" value="" style="edgeStyle=none;curved=1;rounded=0;orthogonalLoop=1;jettySize=auto;html=1;fontSize=12;startSize=8;endSize=8;" parent="WIyWlLk6GJQsqaUBKTNV-1" source="k07imgYd8GeX-_EpzWMu-470" target="k07imgYd8GeX-_EpzWMu-471" edge="1">
                    <mxGeometry relative="1" as="geometry"/>
                </mxCell>
                <mxCell id="k07imgYd8GeX-_EpzWMu-470" value="Perbarui Data Tanaman" style="rounded=1;whiteSpace=wrap;html=1;strokeWidth=2;" parent="WIyWlLk6GJQsqaUBKTNV-1" vertex="1">
                    <mxGeometry x="-1874" y="-3900" width="120" height="50" as="geometry"/>
                </mxCell>
                <mxCell id="k07imgYd8GeX-_EpzWMu-471" value="end" style="strokeWidth=2;html=1;shape=mxgraph.flowchart.terminator;whiteSpace=wrap;" parent="WIyWlLk6GJQsqaUBKTNV-1" vertex="1">
                    <mxGeometry x="-1881.3600000000001" y="-3814" width="134.72" height="50" as="geometry"/>
                </mxCell>
                <mxCell id="k07imgYd8GeX-_EpzWMu-472" value="input jadwal_baru" style="shape=parallelogram;perimeter=parallelogramPerimeter;whiteSpace=wrap;html=1;fixedSize=1;align=center;strokeWidth=2;rounded=1;" parent="WIyWlLk6GJQsqaUBKTNV-1" vertex="1">
                    <mxGeometry x="-1883.8799999999997" y="-3995" width="140" height="49.5" as="geometry"/>
                </mxCell>
                <mxCell id="k07imgYd8GeX-_EpzWMu-473" value="" style="endArrow=classic;html=1;rounded=0;" parent="WIyWlLk6GJQsqaUBKTNV-1" edge="1">
                    <mxGeometry width="50" height="50" relative="1" as="geometry">
                        <mxPoint x="-1909.88" y="-3995" as="sourcePoint"/>
                        <mxPoint x="-1859.88" y="-3995" as="targetPoint"/>
                    </mxGeometry>
                </mxCell>
                <mxCell id="k07imgYd8GeX-_EpzWMu-477" value="" style="edgeStyle=none;curved=1;rounded=0;orthogonalLoop=1;jettySize=auto;html=1;fontSize=12;startSize=8;endSize=8;entryX=0.5;entryY=0;entryDx=0;entryDy=0;" parent="WIyWlLk6GJQsqaUBKTNV-1" source="k07imgYd8GeX-_EpzWMu-474" target="k07imgYd8GeX-_EpzWMu-478" edge="1">
                    <mxGeometry relative="1" as="geometry">
                        <mxPoint x="-1813.2534862385319" y="-4256" as="targetPoint"/>
                    </mxGeometry>
                </mxCell>
                <mxCell id="k07imgYd8GeX-_EpzWMu-474" value="tampilkan_data()" style="shape=process;whiteSpace=wrap;html=1;backgroundOutline=1;strokeWidth=2;" parent="WIyWlLk6GJQsqaUBKTNV-1" vertex="1">
                    <mxGeometry x="-1873.9999999999998" y="-4365" width="120" height="60" as="geometry"/>
                </mxCell>
                <mxCell id="k07imgYd8GeX-_EpzWMu-480" value="" style="edgeStyle=none;curved=1;rounded=0;orthogonalLoop=1;jettySize=auto;html=1;fontSize=12;startSize=8;endSize=8;entryX=0.5;entryY=0;entryDx=0;entryDy=0;" parent="WIyWlLk6GJQsqaUBKTNV-1" source="k07imgYd8GeX-_EpzWMu-478" target="k07imgYd8GeX-_EpzWMu-461" edge="1">
                    <mxGeometry relative="1" as="geometry"/>
                </mxCell>
                <mxCell id="k07imgYd8GeX-_EpzWMu-478" value="input pilih_tanaman" style="shape=parallelogram;perimeter=parallelogramPerimeter;whiteSpace=wrap;html=1;fixedSize=1;align=center;strokeWidth=2;rounded=1;" parent="WIyWlLk6GJQsqaUBKTNV-1" vertex="1">
                    <mxGeometry x="-1883.9999999999993" y="-4270" width="140" height="49.5" as="geometry"/>
                </mxCell>
                <mxCell id="k07imgYd8GeX-_EpzWMu-479" value="" style="endArrow=classic;html=1;rounded=0;" parent="WIyWlLk6GJQsqaUBKTNV-1" edge="1">
                    <mxGeometry width="50" height="50" relative="1" as="geometry">
                        <mxPoint x="-1909.9999999999998" y="-4270" as="sourcePoint"/>
                        <mxPoint x="-1859.9999999999998" y="-4270" as="targetPoint"/>
                    </mxGeometry>
                </mxCell>
                <mxCell id="k07imgYd8GeX-_EpzWMu-481" value="" style="edgeStyle=none;curved=1;rounded=0;orthogonalLoop=1;jettySize=auto;html=1;fontSize=12;startSize=8;endSize=8;" parent="WIyWlLk6GJQsqaUBKTNV-1" source="k07imgYd8GeX-_EpzWMu-482" target="k07imgYd8GeX-_EpzWMu-498" edge="1">
                    <mxGeometry relative="1" as="geometry"/>
                </mxCell>
                <mxCell id="k07imgYd8GeX-_EpzWMu-482" value="hapus_data()" style="strokeWidth=2;html=1;shape=mxgraph.flowchart.terminator;whiteSpace=wrap;" parent="WIyWlLk6GJQsqaUBKTNV-1" vertex="1">
                    <mxGeometry x="-1461.3600000000001" y="-4455" width="134.72" height="50" as="geometry"/>
                </mxCell>
                <mxCell id="k07imgYd8GeX-_EpzWMu-486" value="" style="edgeStyle=orthogonalEdgeStyle;rounded=0;orthogonalLoop=1;jettySize=auto;html=1;fontSize=12;startSize=8;endSize=8;entryX=0.5;entryY=0;entryDx=0;entryDy=0;exitX=0.5;exitY=1;exitDx=0;exitDy=0;" parent="WIyWlLk6GJQsqaUBKTNV-1" source="k07imgYd8GeX-_EpzWMu-502" target="k07imgYd8GeX-_EpzWMu-493" edge="1">
                    <mxGeometry relative="1" as="geometry">
                        <mxPoint x="-1393.8799999999997" y="-4110" as="sourcePoint"/>
                        <mxPoint x="-1393.9999999999995" y="-3910" as="targetPoint"/>
                    </mxGeometry>
                </mxCell>
                <mxCell id="k07imgYd8GeX-_EpzWMu-506" value="Yes" style="edgeLabel;html=1;align=center;verticalAlign=middle;resizable=0;points=[];fontSize=12;" parent="k07imgYd8GeX-_EpzWMu-486" connectable="0" vertex="1">
                    <mxGeometry x="-0.0623" y="-1" relative="1" as="geometry">
                        <mxPoint as="offset"/>
                    </mxGeometry>
                </mxCell>
                <mxCell id="k07imgYd8GeX-_EpzWMu-490" value="tanaman" style="strokeWidth=2;html=1;shape=mxgraph.flowchart.database;whiteSpace=wrap;" parent="WIyWlLk6GJQsqaUBKTNV-1" vertex="1">
                    <mxGeometry x="-1291.1799999999998" y="-4060" width="60" height="60" as="geometry"/>
                </mxCell>
                <mxCell id="k07imgYd8GeX-_EpzWMu-491" value="" style="edgeStyle=none;curved=1;rounded=0;orthogonalLoop=1;jettySize=auto;html=1;fontSize=12;startSize=8;endSize=8;" parent="WIyWlLk6GJQsqaUBKTNV-1" source="k07imgYd8GeX-_EpzWMu-493" target="k07imgYd8GeX-_EpzWMu-490" edge="1">
                    <mxGeometry relative="1" as="geometry"/>
                </mxCell>
                <mxCell id="k07imgYd8GeX-_EpzWMu-492" value="" style="edgeStyle=none;curved=1;rounded=0;orthogonalLoop=1;jettySize=auto;html=1;fontSize=12;startSize=8;endSize=8;entryX=0.5;entryY=0;entryDx=0;entryDy=0;entryPerimeter=0;" parent="WIyWlLk6GJQsqaUBKTNV-1" source="k07imgYd8GeX-_EpzWMu-493" target="k07imgYd8GeX-_EpzWMu-513" edge="1">
                    <mxGeometry relative="1" as="geometry">
                        <mxPoint x="-1395" y="-3969" as="targetPoint"/>
                    </mxGeometry>
                </mxCell>
                <mxCell id="k07imgYd8GeX-_EpzWMu-493" value="Hapus Tanaman" style="rounded=1;whiteSpace=wrap;html=1;strokeWidth=2;" parent="WIyWlLk6GJQsqaUBKTNV-1" vertex="1">
                    <mxGeometry x="-1455" y="-4055" width="120" height="50" as="geometry"/>
                </mxCell>
                <mxCell id="k07imgYd8GeX-_EpzWMu-497" value="" style="edgeStyle=none;curved=1;rounded=0;orthogonalLoop=1;jettySize=auto;html=1;fontSize=12;startSize=8;endSize=8;entryX=0.5;entryY=0;entryDx=0;entryDy=0;" parent="WIyWlLk6GJQsqaUBKTNV-1" source="k07imgYd8GeX-_EpzWMu-498" target="k07imgYd8GeX-_EpzWMu-500" edge="1">
                    <mxGeometry relative="1" as="geometry">
                        <mxPoint x="-1393.2534862385319" y="-4257" as="targetPoint"/>
                    </mxGeometry>
                </mxCell>
                <mxCell id="k07imgYd8GeX-_EpzWMu-498" value="tampilkan_data()" style="shape=process;whiteSpace=wrap;html=1;backgroundOutline=1;strokeWidth=2;" parent="WIyWlLk6GJQsqaUBKTNV-1" vertex="1">
                    <mxGeometry x="-1453.9999999999998" y="-4366" width="120" height="60" as="geometry"/>
                </mxCell>
                <mxCell id="k07imgYd8GeX-_EpzWMu-499" value="" style="edgeStyle=none;curved=1;rounded=0;orthogonalLoop=1;jettySize=auto;html=1;fontSize=12;startSize=8;endSize=8;entryX=0.5;entryY=0;entryDx=0;entryDy=0;" parent="WIyWlLk6GJQsqaUBKTNV-1" source="k07imgYd8GeX-_EpzWMu-500" target="k07imgYd8GeX-_EpzWMu-502" edge="1">
                    <mxGeometry relative="1" as="geometry">
                        <mxPoint x="-1393.9999999999995" y="-4181" as="targetPoint"/>
                    </mxGeometry>
                </mxCell>
                <mxCell id="k07imgYd8GeX-_EpzWMu-500" value="input pilih_tanaman" style="shape=parallelogram;perimeter=parallelogramPerimeter;whiteSpace=wrap;html=1;fixedSize=1;align=center;strokeWidth=2;rounded=1;" parent="WIyWlLk6GJQsqaUBKTNV-1" vertex="1">
                    <mxGeometry x="-1463.9999999999993" y="-4271" width="140" height="49.5" as="geometry"/>
                </mxCell>
                <mxCell id="k07imgYd8GeX-_EpzWMu-501" value="" style="endArrow=classic;html=1;rounded=0;" parent="WIyWlLk6GJQsqaUBKTNV-1" edge="1">
                    <mxGeometry width="50" height="50" relative="1" as="geometry">
                        <mxPoint x="-1489.9999999999998" y="-4271" as="sourcePoint"/>
                        <mxPoint x="-1439.9999999999998" y="-4271" as="targetPoint"/>
                    </mxGeometry>
                </mxCell>
                <mxCell id="k07imgYd8GeX-_EpzWMu-502" value="Yakin menghapus tanaman?" style="rhombus;whiteSpace=wrap;html=1;strokeWidth=2;rounded=0;" parent="WIyWlLk6GJQsqaUBKTNV-1" vertex="1">
                    <mxGeometry x="-1461.3599999999994" y="-4180" width="132.94" height="80" as="geometry"/>
                </mxCell>
                <mxCell id="k07imgYd8GeX-_EpzWMu-503" style="edgeStyle=orthogonalEdgeStyle;rounded=0;orthogonalLoop=1;jettySize=auto;html=1;exitX=0;exitY=0.5;exitDx=0;exitDy=0;entryX=0.5;entryY=0;entryDx=0;entryDy=0;fontSize=12;startSize=8;endSize=8;" parent="WIyWlLk6GJQsqaUBKTNV-1" source="k07imgYd8GeX-_EpzWMu-502" target="k07imgYd8GeX-_EpzWMu-508" edge="1">
                    <mxGeometry relative="1" as="geometry">
                        <Array as="points">
                            <mxPoint x="-1560" y="-4140"/>
                        </Array>
                    </mxGeometry>
                </mxCell>
                <mxCell id="k07imgYd8GeX-_EpzWMu-505" value="No" style="edgeLabel;html=1;align=center;verticalAlign=middle;resizable=0;points=[];fontSize=12;" parent="k07imgYd8GeX-_EpzWMu-503" connectable="0" vertex="1">
                    <mxGeometry x="-0.8697" y="-1" relative="1" as="geometry">
                        <mxPoint x="-17" as="offset"/>
                    </mxGeometry>
                </mxCell>
                <mxCell id="k07imgYd8GeX-_EpzWMu-508" value="output data_tanaman" style="shape=parallelogram;perimeter=parallelogramPerimeter;whiteSpace=wrap;html=1;fixedSize=1;align=center;strokeWidth=2;rounded=1;" parent="WIyWlLk6GJQsqaUBKTNV-1" vertex="1">
                    <mxGeometry x="-1629.9999999999995" y="-4055.25" width="140" height="49.5" as="geometry"/>
                </mxCell>
                <mxCell id="k07imgYd8GeX-_EpzWMu-509" value="" style="endArrow=classic;html=1;rounded=0;" parent="WIyWlLk6GJQsqaUBKTNV-1" edge="1">
                    <mxGeometry width="50" height="50" relative="1" as="geometry">
                        <mxPoint x="-1516" y="-4005.75" as="sourcePoint"/>
                        <mxPoint x="-1466" y="-4005.75" as="targetPoint"/>
                    </mxGeometry>
                </mxCell>
                <mxCell id="k07imgYd8GeX-_EpzWMu-511" style="edgeStyle=orthogonalEdgeStyle;rounded=0;orthogonalLoop=1;jettySize=auto;html=1;exitX=0.5;exitY=1;exitDx=0;exitDy=0;entryX=0;entryY=0.5;entryDx=0;entryDy=0;entryPerimeter=0;fontSize=12;startSize=8;endSize=8;" parent="WIyWlLk6GJQsqaUBKTNV-1" source="k07imgYd8GeX-_EpzWMu-508" target="k07imgYd8GeX-_EpzWMu-513" edge="1">
                    <mxGeometry relative="1" as="geometry">
                        <mxPoint x="-1462.3600000000001" y="-3938.5" as="targetPoint"/>
                    </mxGeometry>
                </mxCell>
                <mxCell id="k07imgYd8GeX-_EpzWMu-513" value="end" style="strokeWidth=2;html=1;shape=mxgraph.flowchart.terminator;whiteSpace=wrap;" parent="WIyWlLk6GJQsqaUBKTNV-1" vertex="1">
                    <mxGeometry x="-1462.25" y="-3970" width="134.72" height="50" as="geometry"/>
                </mxCell>
                <mxCell id="0" value="tampilkan_data()" style="shape=process;whiteSpace=wrap;html=1;backgroundOutline=1;strokeWidth=2;" vertex="1" parent="WIyWlLk6GJQsqaUBKTNV-1">
                    <mxGeometry x="-2390.44" y="-4595" width="120" height="60" as="geometry"/>
                </mxCell>
            </root>
        </mxGraphModel>
    </diagram>
</mxfile>